<?xml version="1.0" encoding="utf-8"?>
<svg viewBox="508.024 532.215 350.093 352.183" style="enable-background:new 0 0 1417.32 1417.32;" xmlns="http://www.w3.org/2000/svg">
  <defs>
    <style type="text/css">
	.st0{fill:#292D32;}
	.st1{fill:#FFFFFF;}
</style>
  </defs>
  <path class="st0" d="M686.61,550.56c-87.32,0-158.1,70.78-158.1,158.1s70.78,158.1,158.1,158.1c87.32,0,158.1-70.78,158.1-158.1&#10;&#9;S773.93,550.56,686.61,550.56z M686.62,818.2c-23.77,0-45.83-7.66-63.85-20.64c-9.65-6.95-18.16-15.4-25.04-25.04l25.54-25.54&#10;&#9;l101.66-101.73c-11.21-6.74-24.26-10.64-38.31-10.64s-27.1,3.9-38.31,10.64c-10.22,6.24-18.87,14.9-25.04,25.11&#10;&#9;c-6.81,11.21-10.71,24.26-10.71,38.31c0,8.5,1.58,16.57,4.22,24.16l-19.2,19.2l-5.68,5.68l-2.06,2.06&#10;&#9;c-8.11-15.25-12.75-32.63-12.75-51.1c0-23.84,7.66-45.9,20.57-63.92c6.95-9.65,15.47-18.09,25.11-25.04&#10;&#9;c18.02-12.91,40.08-20.57,63.85-20.57s45.83,7.66,63.85,20.57c9.72,6.95,18.16,15.47,25.11,25.11l-63.85,63.85l-25.11,25.04&#10;&#9;l-38.31,38.31c11.21,6.81,24.26,10.71,38.31,10.71c9.65,0,18.8-1.84,27.24-5.18l26.46,26.46&#10;&#9;C724.43,813.09,706.13,818.2,686.62,818.2z M750.46,797.52l-25.54-25.54l-5.68-5.68l-22.28-22.28l4.61-4.68l20.43-20.43l28.02,28.02&#10;&#9;l25.47,25.54C768.62,782.13,760.11,790.57,750.46,797.52z M781.96,762.4l-26.46-26.46c0,0,0,0,0-0.07&#10;&#9;c3.33-8.44,5.18-17.59,5.18-27.24c0-8.51-1.42-16.67-4.04-24.26l26.82-26.82c8.16,15.18,12.7,32.56,12.7,51.08&#10;&#9;C796.14,728.14,791.04,746.51,781.96,762.4z"/>
</svg>